<?xml version="1.0" encoding="utf-8"?>
<!-- Generator: Adobe Illustrator 22.0.1, SVG Export Plug-In . SVG Version: 6.00 Build 0)  -->
<svg version="1.1" xmlns="http://www.w3.org/2000/svg" xmlns:xlink="http://www.w3.org/1999/xlink" x="0px" y="0px" width="403.9px"
	 height="641.5px" viewBox="0 0 403.9 641.5" style="enable-background:new 0 0 403.9 641.5;" xml:space="preserve">
<style type="text/css">
	.st0{fill:#E0A6A6;stroke:#FF00E7;stroke-width:2.5;stroke-linecap:round;stroke-linejoin:round;stroke-miterlimit:10;}
	.st1{fill:none;stroke:#FF00E7;stroke-width:2.5;stroke-linecap:round;stroke-linejoin:round;stroke-miterlimit:10;}
	.st2{fill:none;stroke:#0000FF;stroke-width:2.5;stroke-linecap:round;stroke-linejoin:round;stroke-miterlimit:10;}
	.st3{fill:#FF0000;stroke:#0000FF;stroke-width:2.5;stroke-linecap:round;stroke-linejoin:round;stroke-miterlimit:10;}
	.st4{fill:#CE7563;}
	.st5{fill:#9A9A9A;}
	.st6{fill:#2B3B7F;}
	.st7{fill:#7B44D3;}
	.st8{fill:#EA2AE1;}
	.st9{fill:#93D83A;}
	.st10{fill:none;stroke:#00EDFF;stroke-width:2.5;stroke-linecap:round;stroke-linejoin:round;stroke-miterlimit:10;}
	.st11{fill:#FF0000;stroke:#00EDFF;stroke-width:2.5;stroke-linecap:round;stroke-linejoin:round;stroke-miterlimit:10;}
	.st12{fill:#020202;}
	.st13{fill:#FFFFFF;}
</style>
<g id="Слой_1">
</g>
<g id="Слой_4">
	<path class="st0" d="M197.4,274.1c-4.2-3.6-48.2,18.7-28.8,49c2.1,3.2,4.3-2,1.2-2.3c-18.2-2.2-67.5,9.4-83.7,26.7
		c-6,6.4-20.9,15.3-26.3,25.5c-1.4,2.5,1.9,9,0.3,10.5c-10,9.9-6.5,30.2,5,39.3c1.6,1.3,3.2-0.4,1.7-1.3c-9.5-5.5-9.6,35.2-3.7,41
		c2.8,2.8,5.7-3,2.2-2.2c-7.6,1.9-16.2-1.1-17.7-6.3c-1.2-4.5-7.2-4.9-12.2-4.5c-7.6,0.6-9.3,10.6,0,12c2.3,0.4,11.3-0.5,11.3-2.8
		c0.3-8.5-18.8-4.2-25.3-1.8c-6.8,2.5-21.9,10-20,20.5c2.2,12,10.9,22.8,37.9,24.9c8,0.6,18.1-5.6,18.2-7.5c0.2-2.6-6.1-0.7-1.6,1.2
		c8.6,3.6,17.7,1,25.4-2.5c6.6-3,5.1,5.8,10.2,9.2c4.8,3.2,16.2-1.1,19.2,0.1c3.1,1.2,2.3,4.1,3.9,7c3.2,6,12.3-0.3,9.4-2.1
		c-2.7-1.7-1.4,8.6,7.9,8.4c6.1-0.1,21.9-2.6,24.4-1c11,7,39.8,14.5,68.5,4.5c2.9-1,6.6,18.2,21.4-0.1c0.7-0.9-1.1-1.3-0.9-0.1
		c0.7,5.6,15.3,5.4,20.8,3.2c0.2-0.1-1.1,1.9-0.9,1.8c8.4-2.4,40.6,5.4,47-4.5c0.8-1.2-5.5-0.6-0.5,0.6c17.7,4,60.5-1.3,43.2-8.4
		c-1.4-0.6-1.2,0.1-0.4,1c5.5,6.4,33.1-4.2,25.8-10.4c-4.6-3.9,2.4,7.8,8.3,5c29.5-13.8,7.5-109.1-19.5-94c-0.9,0.5-2.5,0.2-1.9,0
		c24.1-11.2,22.3-112-35.6-138.5c-10-4.6-46.2-0.9-64.3-4.3c-13.4-2.6-18.8,0.8-31.7,3.2C218.8,277.2,203.8,279.6,197.4,274.1z"/>
	<g>
		<path class="st1" d="M197.4,274.1c-4.2-3.6-48.2,18.7-28.8,49c2.1,3.2,4.3-2,1.2-2.3c-18.2-2.2-67.5,9.4-83.7,26.7
			c-6,6.4-20.9,15.3-26.3,25.5c-1.4,2.5,1.9,9,0.3,10.5c-10,9.9-6.5,30.2,5,39.3c1.6,1.3,3.2-0.4,1.7-1.3c-9.5-5.5-9.6,35.2-3.7,41
			c2.8,2.8,5.7-3,2.2-2.2c-7.6,1.9-16.2-1.1-17.7-6.3c-1.2-4.5-7.2-4.9-12.2-4.5c-7.6,0.6-9.3,10.6,0,12c2.3,0.4,11.3-0.5,11.3-2.8
			c0.3-8.5-18.8-4.2-25.3-1.8c-6.8,2.5-21.9,10-20,20.5c2.2,12,10.9,22.8,37.9,24.9c8,0.6,18.1-5.6,18.2-7.5
			c0.2-2.6-6.1-0.7-1.6,1.2c8.6,3.6,17.7,1,25.4-2.5c6.6-3,5.1,5.8,10.2,9.2c4.8,3.2,16.2-1.1,19.2,0.1c3.1,1.2,2.3,4.1,3.9,7
			c3.2,6,12.3-0.3,9.4-2.1c-2.7-1.7-1.4,8.6,7.9,8.4c6.1-0.1,21.9-2.6,24.4-1c11,7,39.8,14.5,68.5,4.5c2.9-1,6.6,18.2,21.4-0.1
			c0.7-0.9-1.1-1.3-0.9-0.1c0.7,5.6,15.3,5.4,20.8,3.2c0.2-0.1-1.1,1.9-0.9,1.8c8.4-2.4,40.6,5.4,47-4.5c0.8-1.2-5.5-0.6-0.5,0.6
			c17.7,4,60.5-1.3,43.2-8.4c-1.4-0.6-1.2,0.1-0.4,1c5.5,6.4,33.1-4.2,25.8-10.4c-4.6-3.9,2.4,7.8,8.3,5
			c29.5-13.8,7.5-109.1-19.5-94c-0.9,0.5-2.5,0.2-1.9,0c24.1-11.2,22.3-112-35.6-138.5c-10-4.6-46.2-0.9-64.3-4.3
			c-13.4-2.6-18.8,0.8-31.7,3.2C218.8,277.2,203.8,279.6,197.4,274.1z"/>
		<path class="st1" d="M173.1,395.4c-1.4,18.2,31.1,11.7,33,8.7"/>
		<path class="st1" d="M101.4,440.1c-6.9,42.9,62.9,36.5,70,31.3"/>
		<path class="st1" d="M238.7,460.1c-0.5,2.2-24.1,1.9-23.9-8.7"/>
		<path class="st1" d="M250.3,483.7c1.2,7.6,15.9,5.7,15.1,2.4"/>
		<path class="st2" d="M339.4,491.4c13.4-74.6,23-91,33.2-24.2"/>
		<path class="st2" d="M311.3,407.7c-1.5,12.8,25,23.1,26.2,1c1.3-23,1.5-42.4,0.2-56.5c-3.1-32.8-28.2-35.9-32.2,1.8"/>
		<path class="st2" d="M372.3,346.2c-3.7-26.1-20.5-22.1-17.8,20.5c0.6,9.3,0.9,24.7,3,33.8c2.4,10,6.3,13.8,10,14.2"/>
		<line class="st2" x1="310.6" y1="352.9" x2="338.1" y2="383.9"/>
		<line class="st2" x1="371.3" y1="345.4" x2="355.9" y2="383.9"/>
		<g>
			<path class="st3" d="M310.2,354.4c-2.6,0.8-1.3,27.3,2.2,26.5C315.5,380.2,315.3,352.8,310.2,354.4z"/>
			<path class="st3" d="M365.7,364.6c-4.3-5.4-5.6,24.2-1,23.3C366.9,387.5,368.8,368.4,365.7,364.6z"/>
			<polygon class="st3" points="328.1,309.4 320.4,313.4 340.7,358.8 			"/>
			<polygon class="st3" points="355.4,318.1 360.7,316.4 351.1,362.4 			"/>
		</g>
	</g>
</g>
<g id="Слой_2">
	<g>
		<path id="sweater" class="st4" d="M264.6,309.7c4.5,0.4,21.6-22.9,30.9-26.4l0,0c0.8,1.4,1.8,2.5,3.8,2.8
			c3.9,0.6,1.2-9.3,4.2-11.3c2.1-1.4,3,0.2,3.7-2.2c6.4-23.2-9.5-94-10.8-94c-2-24.8-30.8-51.6-40.7-60.9c0-3.2,0.3-9.5-6.4-11.1
			c0,0-0.5,0-0.5,0c0-0.3-68.7,19.4-68.9,19.2c-1.5-1.3-8.2-0.4-8.2-2.4l-2.4-0.5c-1.9-3.7-5.7-8-8-9.5c-6.9-4.7-16.9,9.8-15.6,13.5
			c1,3.1,7.1-9,6.9-12.2c-0.1-1.6-4.4-5.4-12-5c-1.8,0.1-19.5,3.9-20.2,8.2c-1.1,6.4,26.6-12.7,27.1-15.5l2.6,2.2
			c0,0,9.6-8,11.3-12.3c1-2.6,0-7.3,1.8-9.4c1.7-2,9.7-1.3,9.5,1.7l-1.7-6.8l6.6-4.1l-8.4-17c-2-0.9-3.3-0.7-4.1,0h-0.9
			c-1.7-0.1-6.7,5.8-5.5,6.2c1.6,0.5,2.3-4-0.5-4.8c-0.7-0.2-2,0.6-2.6,1c-8.2,4.9-28.6,23.8-28.6,23.8l0.3,0.1
			c-4.2,6.1-21.7,13.3-21.8,19.8c0,2.4-2.6,5.9-5.4,7.1c-2.7,1.3-6.3,5-7.5,7.8c-2.9,6.5,13.3,16.9,14.6,16.8
			c2.8-0.4,6.5-2.5,4.6-3.2c-2.1-0.8-0.7,3.7,1.5,4.2c3.6,0.9,28.6,22.6,36.7,24.4l0.6,0.2c5.4,5.5,19,6.1,22.9,11.2
			c1.6,2.1,1,9,3.6,9.4c4.6,0.8,15.2,7.5,14.1,11c-1.7,5.3,0.8,15.7,7.1,20.9c3,2.4,9.5,13.6,9.5,13.6s5.5,15.7,7.4,20.9
			c4.9,13.7,10.3,43.7,20,54.5c0.9,1,5,1.1,5,2.5c-0.3,3.1-4.8,8.9-4,12c0.6,2.3,6.6,3.9,8.6,5.1c3.5,2.1,10,8.1,13.6,6.2
			c2.6-1.3,1.7-7.6,2.8-10.4c0.8-2.1,2-4.4,3.3-7L264.6,309.7z"/>
		<g id="_x0A_sleeve">
			<path class="st5" d="M177.5,74.9c0-4.5-8.4-12-7.9-16.5c0.4-3.3,9.5-9,9.5-9l4.5,11.7L177.5,74.9z"/>
			<path class="st5" d="M241.2,317.3c0,3.4-1.8,11.8,0.2,14.5c2.4,3.1,10.3,8.2,13.8,6.4c1.9-1,1.9-8.8,1.9-11L241.2,317.3z"/>
		</g>
		<g id="shoes">
			<path class="st6" d="M126.1,320.8c4.8-8,14.7-20.6,21-21.7c3.1-0.5,9.3,6.2,10.3,9.2c0.7,2.1-2.1,2.8-1.8,5
				c0.5,4.5,6.3,13,7,17.5c1.4,8.7,2.2,35.6-5.5,34.5c-19.1-2.8-36,1.6-40.2,8.5c-1.9,3.2-11.7-6.2-12.5-11.8
				c-0.4-2.8,5.8-17.9,12.7-20.3c6.2-2.2,8,1.8,12.5,2C136.4,343.9,122.5,326.6,126.1,320.8z"/>
			<path class="st6" d="M266,581.2c0,2.4-2.2,6.4-1.9,8.8c0.2,1.6,3.3,6.9,3.2,8.5c-0.1,4.8-5.8,6.5-6,9.4
				c-0.2,3.1,2.9,9.5,2.8,12.6c-0.1,3.1,0.2,10.9,1.3,12.3c1.3,1.7,6.4,7.1,10.1,7.4c4.9,0.4,15-4.8,17.8-8.8c5-7-2.1-21.3-2.8-29.1
				c-0.4-4.2-3.4-10.2-0.3-16.3c0,0-0.1-0.2-0.2-0.1c-10.1,8.9-18.6,6.2-24.1-4.7"/>
		</g>
		<g id="legs">
			<path class="st7" d="M223.7,276.8c0.2,2-19,2.4-22.7-1.3c-14.8-15.3-61.9-85.3-64.7-84.3c0,0,8.7,88.2,10.7,106.8
				c0.4,3.8-11.3,14-11.7,10.2c-2.7-25.3-16.4-110.3-30.3-149.7c0,0-5-12.7-4-17c0.7-2.8,6.8-8.2,9.6-6.6
				c17.6,9.9,60.8,62.2,85.4,90.6c0.4,0.5,0.6,1.6,1.2,1.4c6.4-1.6,8.4,3.4,10.5,11.7c0.8,3.4,6.1,4,6.2,5.3
				C214.1,243.8,223.1,271.4,223.7,276.8z"/>
			<path class="st7" d="M267.7,307.6l16.7,89.8l7.6,39.1c0,0,0,1.5-0.2,2c-0.5,1-4.3,2.2-4,3.6c0.3,1.5,2.8,3.5,2.7,4.3
				c-0.1,2.1-3.4,2.7-3.4,4.2c0,1.4,3.3,1.9,4.1,2.8c0.7,0.8,0.3,4.4,0.3,4.4c1.2,0-12.6,83.1-18,111.1c-0.7,3.8-2.2,11.8-1,15.5
				c0.7,2.2,3.7,7,6,7c2.6,0.1,6.6-5,7-7.5c4-25.3,23.8-132,23.8-132l-11-166.3l-3.5-2.3l-7.3,5.5L267.7,307.6z"/>
		</g>
		<g id="skin">
			<path class="st8" d="M246.8,92.8c5.7,1.4,3.5,17.5-1.2,22.2c-2,2-6.5,7.1-8.8,5.4c-1-0.7-2.4-5.1-1.2-4.9
				c3.4,0.5-27.1,41.6-32.2,38.8c-5.4-3-11.9-13.6-15.6-18.5c-6.4-8.5-10-26-10-35.7c0-3.1,1.7-9.4,1.5-12.5
				c-0.2-3-2.8-8.9-2.4-11.8c0.6-5.2,9.3-18.7,9.3-18.7l14.6-15.3l13.5-3.2l25.8,10.8l8.7,23.7l-0.8,15.5L246.8,92.8z"/>
			<g>
				<path class="st8" d="M265.4,375.7c0.1,0,0.1,0.1,0.2,0.1c0.9,0.7,0.3-12.1-2.1-13c-1-0.4-3.5,1.4-3.5,2.5v2.9
					c-2.4-3.6-4.8-7.5-5.9-9.3c-2.2-3.5,1.6-17.1,1.6-21.2l-12.6-3.6c0.8,0.6-0.3,4.6-1.7,9.3l-0.1,0.3c-1.2,3.2-7.7,6.2-8,9.1
					c-0.3,2.4,3.5,3.9,4.2,6.2"/>
				<path class="st8" d="M237.6,358.9c-0.1,0.8-0.1,1.4,0,2c0.2,1.7,5.7,7.1,11.4,12.5c0.3,2.2,2.7,9.7,3.8,10.8
					c0.8,0.7,1.1-3.4,1.8-5.4c1.8,1.7,3.3,3.3,4.5,4.6c0.8,0.9,4.2-1.8,4.2-3v-4c0.9,0.1,1.7-0.1,2.1-0.7"/>
			</g>
		</g>
		<path id="hairs" class="st9" d="M240.7,1.3c-2.9-0.8-0.6,15.1,6.7,20.9c8.4,6.7,15.7,20.2,18,30.9c2.5,11.7,2.8,49.1-6.2,48.2
			c-3.7-0.4-3.2-7.3-3.2-7.3l-5.8,4.8l-9.1-3.3l-3.4-5.2c-5.3-1.6,0.2-13.7,0.1-14.5c-0.4-2.6-11.2,5.4-8.7,6.2
			c3.5,1.1,5.4-12.1,2.8-16.9c-3.9-7.2-10.1-14.8-6.1-17.6c3.4-2.4-0.9,8.2-5.9,9.2l-4.3-5.2c-6.4,9.1-5.5-2.1-4.5-7.1
			c0.7-3.4-12.8,11.3-16.8,12.2l-7.9,4.8l-5.4-1.3c-5.8-5.7-0.2-9.4-4.2-14c-5-5.9-12.1-10.9-13.2-12.2c-4.1-4.9,18.2-15,17.8-6.3
			l-0.2,4.2c11.1-26.9,33.8-28.7,34.8-29.1c1,0.3,7.1,2.2,11.8,1c0.7-0.2,2.6-1,2.6-1c0,4-6.5,8.2-5,14c-0.4,0.1,1.9-5.9,4.6-8.6
			C232.6,5.4,240.2,0.3,240.7,1.3"/>
	</g>
	<g>
		<path class="st10" d="M216.6,4.8c-1.8,5.7-26.9,8.3-29.7,26.2c-3.2,20.3,11.8,16.7,12.5,15.2"/>
		<path class="st10" d="M216.1,2.4c1.3,0.3-23,1-34.7,29.2c-3.8,9.2,4,18.6,3.5,19.5"/>
		<path class="st10" d="M181.6,27.4c0.4-8.7-22,1.4-17.8,6.3c1.1,1.3,8.1,6.3,13.2,12.2c3.9,4.6-1.6,8.3,4.2,14"/>
		<path class="st10" d="M230.6,2.4c0,4-6.5,8.2-5,14"/>
		<path class="st10" d="M230.6,12.9c1.2,3.5,1.7,11,0.5,15"/>
		<path class="st10" d="M237.6,20.4c5.6,17.7,3.7,34.7-6.5,33"/>
		<path class="st10" d="M194.3,56.5c4-0.8,17.4-15.6,16.8-12.2c-1,5-1.9,16.2,4.5,7.1"/>
		<path class="st10" d="M219.9,56.6c5-1,9.3-11.6,5.9-9.2c-4,2.9,2.2,10.4,6.1,17.6c2.6,4.8,0.7,18-2.8,16.9
			c-2.5-0.8,8.3-8.8,8.7-6.2c0.1,0.8-5.4,12.9-0.1,14.5"/>
		<path class="st10" d="M244.4,72.3c1.9,5.4,9.1-6,7.2-15.3c-0.8-3.9-7.2-11.1-6.5-15c2.8-14.7-1.2-37.8-3.5-40.1
			c-4.1-4.1-2.1,14,5.8,20.3c8.4,6.7,15.7,20.2,18,30.9c2.5,11.7,2.8,49.1-6.2,48.2c-3.7-0.4-3.2-8.3-3.2-8.3"/>
		<path class="st10" d="M245.9,83.8c0,0,1.3-3.2,4.5,2c2.4,3.9,8,0.5,7.8-2"/>
		<path class="st10" d="M237.5,108.9c-1.3-4.9,3.1-17.7,9.3-16.2c5.7,1.4,3.5,17.5-1.2,22.2c-2,2-6.5,7.1-8.8,5.4
			c-1-0.7-2.4-5.1-1.2-4.9c3.4,0.5-27.1,41.6-32.2,38.8c-5.4-3-11.9-13.6-15.6-18.5c-6.4-8.5-10-26-10-35.7c0-3.1,1.7-9.4,1.5-12.5
			c-0.2-3-2.8-8.9-2.4-11.8c0.6-5.2,9.3-18.7,9.3-18.7"/>
		<path class="st10" d="M179.1,49.4c0,0-9.1,5.7-9.5,9c-0.5,4.5,7.9,12,7.9,16.5"/>
		<path class="st10" d="M253.6,108.1c2.4,3.8,1.3,8.6-0.9,12.2"/>
		<path class="st10" d="M205.1,97.8c5.2,4.7,21.7-18.7,17.8-21.7C217.1,71.6,198.9,92.2,205.1,97.8z"/>
		<path class="st10" d="M188.1,66.9c-4.3,0.5,1.9,28.2,7.2,23.7C197.7,88.4,193.2,66.3,188.1,66.9z"/>
		<g>
			<path class="st11" d="M190.2,86.7c-2.2,0.2-4.1,13.8-1.2,14.2C191.6,101.2,193.2,86.4,190.2,86.7z"/>
			<path class="st11" d="M210.8,94.9c-1.2,0.8-3.1,10.2-0.5,10.2C213,105.3,213.5,93,210.8,94.9z"/>
		</g>
		<path class="st10" d="M198.3,104.2c-0.7,4.3-6.7,4.8-7.8,5.1c-1,0.3,2,4.7,3.1,5"/>
		<path class="st10" d="M197.7,126.2c-5.5-3.7-11.8-13.2-11.8-13.2s3.2,13,5.3,15.7L197.7,126.2z"/>
		<path class="st10" d="M168.9,56.7c-4.7-2.2-5.7,2-5.8,4.8c-0.1,4.6,1.8,11.8,7.6,16.3"/>
		<path class="st10" d="M147.3,102.4c-0.6,2.8-28.2,21.9-27.1,15.5c0.7-4.4,18.5-8.2,20.2-8.2c7.6-0.4,11.9,3.4,12,5
			c0.2,3.3-5.8,15.3-6.9,12.2c-1.2-3.8,8.7-18.2,15.6-13.5c3.2,2.2,9.5,9.8,9,13.6c-1.3,9.9-11.4,34.6-20.4,32.6
			c-8.2-1.8-33.1-23.5-36.7-24.4c-2.2-0.5-3.6-5.1-1.5-4.2c1.8,0.7-1.9,2.9-4.6,3.2c-1.3,0.2-17.5-10.2-14.6-16.8
			c1.2-2.7,4.8-6.5,7.5-7.8c2.7-1.3,5.4-4.7,5.4-7.1c0.1-6.4,17.6-13.7,21.8-19.8"/>
		<path class="st10" d="M180.1,126.4c0-2.3-8.5-0.7-8.5-3"/>
		<path class="st10" d="M177.3,132.4c0-1.8,3.7-4.6,4.9-3.2c2.9,3.5,2.9,16-0.2,21.6"/>
		<path class="st10" d="M144.8,151.8c0-1.2,3.2-5,4.2-4.4c1.3,0.7-2.9,5.5-1.4,5.8c12,2.2,16.5-32.2,14.4-32.2"/>
		<path class="st10" d="M150.5,159.9c5.4,5.5,19,6.1,22.9,11.2c1.6,2.1,1,9,3.6,9.4c4.6,0.8,15.2,7.5,14.1,11
			c-1.7,5.3,0.8,15.7,7.1,20.9c3,2.4,9.5,13.6,9.5,13.6s5.5,15.7,7.4,20.9c4.9,13.7,10.3,43.7,20,54.5c0.9,1,5,1.1,5,2.5"/>
		<path class="st10" d="M197.6,167.9c0,8.9-0.9,27.9,4.4,34.9c5,6.6,28.2,32.8,34,35.9"/>
		<path class="st10" d="M241.3,257.6c-5.5-2.1-37.1-32.5-41.6-48.2c-1-3.4-3.3-7.8-3.6-11.4c-0.8-8.8-7.2-32.2-1.5-40"/>
		<path class="st10" d="M235.7,128.3c-12.6,19.1-18.6,54.8-4,77.8"/>
		<path class="st10" d="M225.8,211.1c0,0,13.2,7.8,13.2,12.4"/>
		<path class="st10" d="M245.4,126.9c-15.5,18.8-2.5,93.8,3.8,107.7c0.8,1.8-4.1,5.8-4.2,7.8c0,1.9,2.2,5.2,2.5,7
			c0.4,2.8,0.6,8.9-0.5,11.5c-1.6,3.8-7.9,7.8-9.1,11.8c-2.2,7.3,2.9,23.6,2.1,31.2c-0.3,3.1-4.8,8.9-4,12c0.6,2.3,6.6,3.9,8.6,5.1
			c3.5,2.1,10,8.1,13.6,6.2c2.6-1.3,1.7-7.6,2.8-10.4c4.6-11.5,19.2-32.1,22.2-44.3c1.9-7.8,1.2-25.3,0-33.2
			c-0.6-3.8-3.5-10.4-2.2-14c4.7-12.8,6.8-39.7,3-53.5"/>
		<path class="st10" d="M243.6,194.4c13.9,17.5,33.8,12.6,36.8,18.3"/>
		<path class="st10" d="M241.2,199.8c4.3,7.8,16.1,14.8,23.2,17.2c8.9,3,16.4-0.3,18.3,3.2"/>
		<path class="st10" d="M264.6,232.4c1.8,3.3,11.3,0.4,11.3,3.2"/>
		<path class="st10" d="M265.1,243.4c-2.5-1.5-10.6-9.1-13-6c-3.5,4.4,4,12.7,9.2,17.3c3.4,3-12.7-3.8-12.7-9.3"/>
		<path class="st10" d="M279.8,275.1c-3-11.1-27.1-14.2-31.8-14.4c-8.8-0.3,27.2,2.9,27.5,17.9"/>
		<path class="st10" d="M255.6,117.7c9.9,9.4,38.7,36.1,40.7,60.9c1.3,0,17.3,70.8,10.8,94c-0.7,2.4-1.6,0.8-3.7,2.2
			c-3,2-0.3,11.9-4.2,11.3c-5.7-0.8-3.1-8.6-13.2-11.2"/>
		<path class="st10" d="M295.5,283.3c-9.2,3.5-26.4,26.8-30.9,26.4"/>
		<path class="st10" d="M240.8,319.8c0,3.4-1.4,9.3,0.6,12c2.4,3.1,10.3,8.2,13.8,6.4c1.9-1,1.9-4.6,1.9-6.8"/>
		<path class="st10" d="M249.8,326.6c-0.8,1.7-1.9,5.7,0,6.8"/>
		<path class="st10" d="M243.1,334.1c1.8,1.5-6,21.1-5.5,26.9c0.3,2.8,15.7,16,21.5,22.5c0.8,0.9,4.2-1.8,4.2-3"/>
		<path class="st10" d="M255.7,337.7c0,4.1-3.8,17.7-1.6,21.2c2.1,3.4,9.3,15.2,11.5,16.9c0.9,0.7,0.3-12.1-2.1-13
			c-1-0.4-3.5,1.4-3.5,2.5"/>
		<path class="st10" d="M255.3,371.7c0.1,2.1,8.8,6.8,10.2,3.8"/>
		<path class="st10" d="M241.2,343.4c-1,3.2-7.6,6.3-7.9,9.2c-0.3,2.4,3.5,3.9,4.2,6.2"/>
		<path class="st10" d="M249,373.1c0,1.5,2.7,10,3.9,11.1c0.8,0.7,1.1-3.4,1.8-5.4"/>
		<path class="st10" d="M223.7,276.8c0.2,2-19,2.4-22.7-1.3c-14.8-15.3-61.9-85.3-64.7-84.3c0,0,8.7,88.2,10.7,106.8
			c0.4,3.8-11.3,14-11.7,10.2c-2.7-25.3-16.4-110.3-30.3-149.7c0,0-5-12.7-4-17c0.7-2.8,6.8-8.2,9.6-6.6
			c17.6,9.9,60.8,62.2,85.4,90.6c0.4,0.5,0.6,1.6,1.2,1.4c6.4-1.6,8.4,3.4,10.5,11.7c0.8,3.4,6.1,4,6.2,5.3
			C214.1,243.8,223.1,271.4,223.7,276.8z"/>
		<path class="st10" d="M267.7,307.6l16.7,89.8l7.6,39.1c0,0,0,1.5-0.2,2c-0.5,1-4.3,2.2-4,3.6c0.3,1.5,2.8,3.5,2.7,4.3
			c-0.1,2.1-3.4,2.7-3.4,4.2c0,1.4,3.3,1.9,4.1,2.8c0.7,0.8,0.3,4.4,0.3,4.4c1.2,0-12.6,83.1-18,111.1c-0.7,3.8-2.2,11.8-1,15.5
			c0.7,2.2,3.7,7,6,7c2.6,0.1,6.6-5,7-7.5c4-25.3,23.8-132,23.8-132l-11-166.3l-3.5-2.3l-7.3,5.5L267.7,307.6z"/>
		<path class="st10" d="M126.1,320.8c2.1-3.5,5.2-7.9,8.5-11.8c0-0.1,0.1-0.2,0.1-0.2c4.6,1,9.1-5.1,12.3-9.7c0-0.1,0.1,0,0.2,0
			c3.1-0.2,9.2,6.3,10.1,9.2c0.7,2.1-2.1,2.8-1.8,5c0.5,4.5,6.3,13,7,17.5c1.4,8.7,2.2,35.6-5.5,34.5c-19.1-2.8-36,1.6-40.2,8.5
			c-1.9,3.2-11.7-6.2-12.5-11.8c-0.4-2.8,5.8-17.9,12.7-20.3c6.2-2.2,8,1.8,12.5,2C136.4,343.9,122.5,326.6,126.1,320.8z"/>
		<path class="st10" d="M130.4,329.8c0-1.9,6.4-4.2,7.5-2.7c2.1,3-12.1,7-9.8,9.8c1.8,2.3,8.8-7.9,10.5-5.5c1.8,2.5-10.3,5.7-9,8.5
			c1,2.3,9-0.3,9-2.8"/>
		<path class="st10" d="M272.1,570.9c0,2-5.7-0.2-6.8,1.5c-2.3,3.4,1.2,10.7,3.8,13.9c1.8,2.3,6.5,5.3,9.5,5.3
			c3.6,0,13.5-4.9,12.8-8.1c-0.7-3.2-4-3.1-4-5.2"/>
		<path class="st10" d="M266,581.2c0,2.4-2.2,6.4-1.9,8.8c0.2,1.6,3.3,6.9,3.2,8.5c-0.1,4.8-5.8,6.5-6,9.4
			c-0.2,3.1,2.9,9.5,2.8,12.6c-0.1,3.1,0.2,10.9,1.3,12.3c1.3,1.7,6.4,7.1,10.1,7.4c4.9,0.4,15-4.8,17.8-8.8c5-7-2.1-21.3-2.8-29.1
			c-0.4-4.4-3.7-10.7,0.1-17.1"/>
		<path class="st10" d="M270.5,610.7c-2.7,8.2,2.8,17.6,8.2,20.2c2.3,1.1,8.6-0.5,10.1-2.6c2.5-3.5-4.7-7.6-1.8-15.8"/>
		<path class="st10" d="M284.1,600.9c0-4-17.9-8.6-14.5-6.5c3.1,2,17.7,6.2,15,1.5c-1.6-2.8-10,3.5-12,5"/>
		<path class="st10" d="M195.3,151.6c0,0,5.5-22.3,2.4-25.2l-6.4,2.4C193.2,130.8,195.3,151.6,195.3,151.6z"/>
		<path class="st10" d="M163.7,56.7c-1.7-0.1-6.6,5.8-5.4,6.2c1.6,0.5,2.3-4-0.5-4.8c-0.7-0.2-2,0.6-2.6,1
			c-8.2,4.9-28.7,23.8-28.7,23.8l23.5,22.1c0,0,9.4-8.2,11.1-12.5c1-2.6,0-7.3,1.8-9.4c1.7-2,9.7-1.3,9.5,1.7"/>
		<line class="st10" x1="142.6" y1="84.7" x2="145.7" y2="92.8"/>
		<path class="st10" d="M266.2,603.5c0,3.2-1,9.2,0.6,12.5c1.7,3.5-2.9,10.8-1.7,14.9"/>
	</g>
	<path class="st1" d="M176.1,345.4c-23.2-6.1-29,44.8-28,35.3c4-36.9-46.5,2.4-34.7,1.4c4.7-0.4-17.4-32.2-37.2-11.5"/>
</g>
<g id="Слой_6">
	<g id="speech">
		<path class="st12" d="M149.5,98.4c0.7-1.4,1.3-2.7,0.8-2.7c-5.9,0.5-16,1.8-19.2-4.1c-0.1-0.2-0.4,0-0.2-0.1
			c1.9-1.5,6.7-26.5,6.5-34c-0.2-5.1-1.9-11-6.3-13.6C110.2,31.4,59.6,22.7,35.3,25c-6,0.6-18.8,4.2-22.3,9
			C6.2,43.3,2.3,68.1,5.9,79c2.6,7.9,10.4,25,20.1,27c19.7,4.1,61.3,5.9,78.2,6.7c2.1,0.1,9.3,0,14-3.2c0.3-0.2-0.4-0.2,0,0
			C129.9,114,145.6,106,149.5,98.4z"/>
		<path class="st13" d="M144.3,99.5c-6,1.7-22.8,0.6-18.7-8.1c0.4-0.9,0,0.1,0.4-0.9c3.8-9.6,8.9-24.6,8-32
			c-0.5-4.8-1.8-10.4-6.2-12.9c-20.2-11.8-69.6-19.9-93.3-17.8c-5.9,0.5-18.4,4-21.8,8.5C6.2,45.1,2.4,68.6,5.9,78.8
			c2.5,7.5,10.2,23.7,19.6,25.5c19.2,3.8,59.8,5.5,76.2,6.3c5.9,0.3,10.8-1.5,13.2-4.2c1.8-2,0.6-1.7,2.8-1.1
			C122.5,106.4,137.3,108,144.3,99.5z"/>
	</g>
</g>
</svg>
