<svg xmlns="http://www.w3.org/2000/svg" width="403.9" height="641.5" viewBox="0 0 403.9 641.5">
  <style>
    .st1,.st2{fill:none;stroke:#ff00e7;stroke-width:2.5;stroke-miterlimit:10}.st2{stroke:#00f}.st4{fill:#9a9a9a}.st5{fill:#2b3b7f}.st6{fill:#7b44d3}.st7{fill:#ea2ae1}.st9{fill:none;stroke:#00edff;stroke-width:2.5;stroke-miterlimit:10}
    .sta2{font-family:&apos;MyriadPro-Regular&apos;}.sta3{font-size:21px}
  </style>
  <g id="Слой_4">
    <path d="M197.4 274.1c-4.2-3.6-48.2 18.7-28.8 49 2.1 3.2 4.3-2 1.2-2.3-18.2-2.2-67.5 9.4-83.7 26.7-6 6.4-20.9 15.3-26.3 25.5-1.4 2.5 1.9 9 .3 10.5-10 9.9-6.5 30.2 5 39.3 1.6 1.3 3.2-.4 1.7-1.3-9.5-5.5-9.6 35.2-3.7 41 2.8 2.8 5.7-3 2.2-2.2-7.6 1.9-16.2-1.1-17.7-6.3-1.2-4.5-7.2-4.9-12.2-4.5-7.6.6-9.3 10.6 0 12 2.3.4 11.3-.5 11.3-2.8.3-8.5-18.8-4.2-25.3-1.8-6.8 2.5-21.9 10-20 20.5 2.2 12 10.9 22.8 37.9 24.9 8 .6 18.1-5.6 18.2-7.5.2-2.6-6.1-.7-1.6 1.2 8.6 3.6 17.7 1 25.4-2.5 6.6-3 5.1 5.8 10.2 9.2 4.8 3.2 16.2-1.1 19.2.1 3.1 1.2 2.3 4.1 3.9 7 3.2 6 12.3-.3 9.4-2.1-2.7-1.7-1.4 8.6 7.9 8.4 6.1-.1 21.9-2.6 24.4-1 11 7 39.8 14.5 68.5 4.5 2.9-1 6.6 18.2 21.4-.1.7-.9-1.1-1.3-.9-.1.7 5.6 15.3 5.4 20.8 3.2.2-.1-1.1 1.9-.9 1.8 8.4-2.4 40.6 5.4 47-4.5.8-1.2-5.5-.6-.5.6 17.7 4 60.5-1.3 43.2-8.4-1.4-.6-1.2.1-.4 1 5.5 6.4 33.1-4.2 25.8-10.4-4.6-3.9 2.4 7.8 8.3 5 29.5-13.8 7.5-109.1-19.5-94-.9.5-2.5.2-1.9 0 24.1-11.2 22.3-112-35.6-138.5-10-4.6-46.2-.9-64.3-4.3-13.4-2.6-18.8.8-31.7 3.2-16.8 3.1-31.8 5.5-38.2 0z" fill="#e0a6a6" stroke="#ff00e7" stroke-width="2.5" stroke-miterlimit="10"/>
    <path class="st1" d="M197.4 274.1c-4.2-3.6-48.2 18.7-28.8 49 2.1 3.2 4.3-2 1.2-2.3-18.2-2.2-67.5 9.4-83.7 26.7-6 6.4-20.9 15.3-26.3 25.5-1.4 2.5 1.9 9 .3 10.5-10 9.9-6.5 30.2 5 39.3 1.6 1.3 3.2-.4 1.7-1.3-9.5-5.5-9.6 35.2-3.7 41 2.8 2.8 5.7-3 2.2-2.2-7.6 1.9-16.2-1.1-17.7-6.3-1.2-4.5-7.2-4.9-12.2-4.5-7.6.6-9.3 10.6 0 12 2.3.4 11.3-.5 11.3-2.8.3-8.5-18.8-4.2-25.3-1.8-6.8 2.5-21.9 10-20 20.5 2.2 12 10.9 22.8 37.9 24.9 8 .6 18.1-5.6 18.2-7.5.2-2.6-6.1-.7-1.6 1.2 8.6 3.6 17.7 1 25.4-2.5 6.6-3 5.1 5.8 10.2 9.2 4.8 3.2 16.2-1.1 19.2.1 3.1 1.2 2.3 4.1 3.9 7 3.2 6 12.3-.3 9.4-2.1-2.7-1.7-1.4 8.6 7.9 8.4 6.1-.1 21.9-2.6 24.4-1 11 7 39.8 14.5 68.5 4.5 2.9-1 6.6 18.2 21.4-.1.7-.9-1.1-1.3-.9-.1.7 5.6 15.3 5.4 20.8 3.2.2-.1-1.1 1.9-.9 1.8 8.4-2.4 40.6 5.4 47-4.5.8-1.2-5.5-.6-.5.6 17.7 4 60.5-1.3 43.2-8.4-1.4-.6-1.2.1-.4 1 5.5 6.4 33.1-4.2 25.8-10.4-4.6-3.9 2.4 7.8 8.3 5 29.5-13.8 7.5-109.1-19.5-94-.9.5-2.5.2-1.9 0 24.1-11.2 22.3-112-35.6-138.5-10-4.6-46.2-.9-64.3-4.3-13.4-2.6-18.8.8-31.7 3.2-16.8 3.1-31.8 5.5-38.2 0zM173.1 395.4c-1.4 18.2 31.1 11.7 33 8.7M101.4 440.1c-6.9 42.9 62.9 36.5 70 31.3M238.7 460.1c-.5 2.2-24.1 1.9-23.9-8.7M250.3 483.7c1.2 7.6 15.9 5.7 15.1 2.4"/>
    <path class="st2" d="M339.4 491.4c13.4-74.6 23-91 33.2-24.2M311.3 407.7c-1.5 12.8 25 23.1 26.2 1 1.3-23 1.5-42.4.2-56.5-3.1-32.8-28.2-35.9-32.2 1.8M372.3 346.2c-3.7-26.1-20.5-22.1-17.8 20.5.6 9.3.9 24.7 3 33.8 2.4 10 6.3 13.8 10 14.2M310.6 352.9l27.5 31M371.3 345.4l-15.4 38.5"/>
    <path class="st2" d="M310.2 354.4c-2.6.8-1.3 27.3 2.2 26.5 3.1-.7 2.9-28.1-2.2-26.5zM365.7 364.6c-4.3-5.4-5.6 24.2-1 23.3 2.2-.4 4.1-19.5 1-23.3zM328.1 309.4l-7.7 4 20.3 45.4zM355.4 318.1l5.3-1.7-9.6 46z"/>
  </g>
  <g id="Слой_2">
    <path id="sweater" d="M264.6 309.7c4.5.4 21.6-22.9 30.9-26.4.8 1.4 1.8 2.5 3.8 2.8 3.9.6 1.2-9.3 4.2-11.3 2.1-1.4 3 .2 3.7-2.2 6.4-23.2-9.5-94-10.8-94-2-24.8-30.8-51.6-40.7-60.9 0-3.2.3-9.5-6.4-11.1h-.5c0-.3-68.7 19.4-68.9 19.2-1.5-1.3-8.2-.4-8.2-2.4l-2.4-.5c-1.9-3.7-5.7-8-8-9.5-6.9-4.7-16.9 9.8-15.6 13.5 1 3.1 7.1-9 6.9-12.2-.1-1.6-4.4-5.4-12-5-1.8.1-19.5 3.9-20.2 8.2-1.1 6.4 26.6-12.7 27.1-15.5l2.6 2.2s9.6-8 11.3-12.3c1-2.6 0-7.3 1.8-9.4 1.7-2 9.7-1.3 9.5 1.7l-1.7-6.8 6.6-4.1-8.4-17c-2-.9-3.3-.7-4.1 0h-.9c-1.7-.1-6.7 5.8-5.5 6.2 1.6.5 2.3-4-.5-4.8-.7-.2-2 .6-2.6 1C147.4 64 127 82.9 127 82.9l.3.1c-4.2 6.1-21.7 13.3-21.8 19.8 0 2.4-2.6 5.9-5.4 7.1-2.7 1.3-6.3 5-7.5 7.8-2.9 6.5 13.3 16.9 14.6 16.8 2.8-.4 6.5-2.5 4.6-3.2-2.1-.8-.7 3.7 1.5 4.2 3.6.9 28.6 22.6 36.7 24.4l.6.2c5.4 5.5 19 6.1 22.9 11.2 1.6 2.1 1 9 3.6 9.4 4.6.8 15.2 7.5 14.1 11-1.7 5.3.8 15.7 7.1 20.9 3 2.4 9.5 13.6 9.5 13.6s5.5 15.7 7.4 20.9c4.9 13.7 10.3 43.7 20 54.5.9 1 5 1.1 5 2.5-.3 3.1-4.8 8.9-4 12 .6 2.3 6.6 3.9 8.6 5.1 3.5 2.1 10 8.1 13.6 6.2 2.6-1.3 1.7-7.6 2.8-10.4.8-2.1 2-4.4 3.3-7l.1-.3z" fill="#ce7563"/>
    <g id="_x0A_sleeve">
      <path class="st4" d="M177.5 74.9c0-4.5-8.4-12-7.9-16.5.4-3.3 9.5-9 9.5-9l4.5 11.7-6.1 13.8zM241.2 317.3c0 3.4-1.8 11.8.2 14.5 2.4 3.1 10.3 8.2 13.8 6.4 1.9-1 1.9-8.8 1.9-11l-15.9-9.9z"/>
    </g>
    <g id="shoes">
      <path class="st5" d="M126.1 320.8c4.8-8 14.7-20.6 21-21.7 3.1-.5 9.3 6.2 10.3 9.2.7 2.1-2.1 2.8-1.8 5 .5 4.5 6.3 13 7 17.5 1.4 8.7 2.2 35.6-5.5 34.5-19.1-2.8-36 1.6-40.2 8.5-1.9 3.2-11.7-6.2-12.5-11.8-.4-2.8 5.8-17.9 12.7-20.3 6.2-2.2 8 1.8 12.5 2 6.8.2-7.1-17.1-3.5-22.9zM266 581.2c0 2.4-2.2 6.4-1.9 8.8.2 1.6 3.3 6.9 3.2 8.5-.1 4.8-5.8 6.5-6 9.4-.2 3.1 2.9 9.5 2.8 12.6-.1 3.1.2 10.9 1.3 12.3 1.3 1.7 6.4 7.1 10.1 7.4 4.9.4 15-4.8 17.8-8.8 5-7-2.1-21.3-2.8-29.1-.4-4.2-3.4-10.2-.3-16.3 0 0-.1-.2-.2-.1-10.1 8.9-18.6 6.2-24.1-4.7"/>
    </g>
    <g id="legs">
      <path class="st6" d="M223.7 276.8c.2 2-19 2.4-22.7-1.3-14.8-15.3-61.9-85.3-64.7-84.3 0 0 8.7 88.2 10.7 106.8.4 3.8-11.3 14-11.7 10.2-2.7-25.3-16.4-110.3-30.3-149.7 0 0-5-12.7-4-17 .7-2.8 6.8-8.2 9.6-6.6 17.6 9.9 60.8 62.2 85.4 90.6.4.5.6 1.6 1.2 1.4 6.4-1.6 8.4 3.4 10.5 11.7.8 3.4 6.1 4 6.2 5.3.2-.1 9.2 27.5 9.8 32.9zM267.7 307.6l16.7 89.8 7.6 39.1s0 1.5-.2 2c-.5 1-4.3 2.2-4 3.6.3 1.5 2.8 3.5 2.7 4.3-.1 2.1-3.4 2.7-3.4 4.2 0 1.4 3.3 1.9 4.1 2.8.7.8.3 4.4.3 4.4 1.2 0-12.6 83.1-18 111.1-.7 3.8-2.2 11.8-1 15.5.7 2.2 3.7 7 6 7 2.6.1 6.6-5 7-7.5 4-25.3 23.8-132 23.8-132l-11-166.3-3.5-2.3-7.3 5.5-19.8 18.8z"/>
    </g>
    <g id="skin">
      <path class="st7" d="M246.8 92.8c5.7 1.4 3.5 17.5-1.2 22.2-2 2-6.5 7.1-8.8 5.4-1-.7-2.4-5.1-1.2-4.9 3.4.5-27.1 41.6-32.2 38.8-5.4-3-11.9-13.6-15.6-18.5-6.4-8.5-10-26-10-35.7 0-3.1 1.7-9.4 1.5-12.5-.2-3-2.8-8.9-2.4-11.8.6-5.2 9.3-18.7 9.3-18.7l14.6-15.3 13.5-3.2 25.8 10.8 8.7 23.7-.8 15.5-1.2 4.2zM265.4 375.7c.1 0 .1.1.2.1.9.7.3-12.1-2.1-13-1-.4-3.5 1.4-3.5 2.5v2.9c-2.4-3.6-4.8-7.5-5.9-9.3-2.2-3.5 1.6-17.1 1.6-21.2l-12.6-3.6c.8.6-.3 4.6-1.7 9.3l-.1.3c-1.2 3.2-7.7 6.2-8 9.1-.3 2.4 3.5 3.9 4.2 6.2"/>
      <path class="st7" d="M237.6 358.9c-.1.8-.1 1.4 0 2 .2 1.7 5.7 7.1 11.4 12.5.3 2.2 2.7 9.7 3.8 10.8.8.7 1.1-3.4 1.8-5.4 1.8 1.7 3.3 3.3 4.5 4.6.8.9 4.2-1.8 4.2-3v-4c.9.1 1.7-.1 2.1-.7"/>
    </g>
    <path id="hairs" d="M240.7 1.3c-2.9-.8-.6 15.1 6.7 20.9 8.4 6.7 15.7 20.2 18 30.9 2.5 11.7 2.8 49.1-6.2 48.2-3.7-.4-3.2-7.3-3.2-7.3l-5.8 4.8-9.1-3.3-3.4-5.2c-5.3-1.6.2-13.7.1-14.5-.4-2.6-11.2 5.4-8.7 6.2 3.5 1.1 5.4-12.1 2.8-16.9-3.9-7.2-10.1-14.8-6.1-17.6 3.4-2.4-.9 8.2-5.9 9.2l-4.3-5.2c-6.4 9.1-5.5-2.1-4.5-7.1.7-3.4-12.8 11.3-16.8 12.2l-7.9 4.8-5.4-1.3c-5.8-5.7-.2-9.4-4.2-14-5-5.9-12.1-10.9-13.2-12.2-4.1-4.9 18.2-15 17.8-6.3l-.2 4.2C192.3 4.9 215 3.1 216 2.7c1 .3 7.1 2.2 11.8 1 .7-.2 2.6-1 2.6-1 0 4-6.5 8.2-5 14-.4.1 1.9-5.9 4.6-8.6 2.6-2.7 10.2-7.8 10.7-6.8" fill="#93d83a"/>
    <g>
      <path class="st9" d="M216.6 4.8c-1.8 5.7-26.9 8.3-29.7 26.2-3.2 20.3 11.8 16.7 12.5 15.2"/>
      <path class="st9" d="M216.1 2.4c1.3.3-23 1-34.7 29.2-3.8 9.2 4 18.6 3.5 19.5"/>
      <path class="st9" d="M181.6 27.4c.4-8.7-22 1.4-17.8 6.3 1.1 1.3 8.1 6.3 13.2 12.2 3.9 4.6-1.6 8.3 4.2 14M230.6 2.4c0 4-6.5 8.2-5 14M230.6 12.9c1.2 3.5 1.7 11 .5 15M237.6 20.4c5.6 17.7 3.7 34.7-6.5 33M194.3 56.5c4-.8 17.4-15.6 16.8-12.2-1 5-1.9 16.2 4.5 7.1M219.9 56.6c5-1 9.3-11.6 5.9-9.2-4 2.9 2.2 10.4 6.1 17.6 2.6 4.8.7 18-2.8 16.9-2.5-.8 8.3-8.8 8.7-6.2.1.8-5.4 12.9-.1 14.5"/>
      <path class="st9" d="M244.4 72.3c1.9 5.4 9.1-6 7.2-15.3-.8-3.9-7.2-11.1-6.5-15 2.8-14.7-1.2-37.8-3.5-40.1-4.1-4.1-2.1 14 5.8 20.3 8.4 6.7 15.7 20.2 18 30.9 2.5 11.7 2.8 49.1-6.2 48.2-3.7-.4-3.2-8.3-3.2-8.3"/>
      <path class="st9" d="M245.9 83.8s1.3-3.2 4.5 2c2.4 3.9 8 .5 7.8-2M237.5 108.9c-1.3-4.9 3.1-17.7 9.3-16.2 5.7 1.4 3.5 17.5-1.2 22.2-2 2-6.5 7.1-8.8 5.4-1-.7-2.4-5.1-1.2-4.9 3.4.5-27.1 41.6-32.2 38.8-5.4-3-11.9-13.6-15.6-18.5-6.4-8.5-10-26-10-35.7 0-3.1 1.7-9.4 1.5-12.5-.2-3-2.8-8.9-2.4-11.8.6-5.2 9.3-18.7 9.3-18.7"/>
      <path class="st9" d="M179.1 49.4s-9.1 5.7-9.5 9c-.5 4.5 7.9 12 7.9 16.5M253.6 108.1c2.4 3.8 1.3 8.6-.9 12.2M205.1 97.8c5.2 4.7 21.7-18.7 17.8-21.7-5.8-4.5-24 16.1-17.8 21.7zM188.1 66.9c-4.3.5 1.9 28.2 7.2 23.7 2.4-2.2-2.1-24.3-7.2-23.7z"/>
      <path class="st9" d="M190.2 86.7c-2.2.2-4.1 13.8-1.2 14.2 2.6.3 4.2-14.5 1.2-14.2zM210.8 94.9c-1.2.8-3.1 10.2-.5 10.2 2.7.2 3.2-12.1.5-10.2zM198.3 104.2c-.7 4.3-6.7 4.8-7.8 5.1-1 .3 2 4.7 3.1 5M197.7 126.2c-5.5-3.7-11.8-13.2-11.8-13.2s3.2 13 5.3 15.7l6.5-2.5zM168.9 56.7c-4.7-2.2-5.7 2-5.8 4.8-.1 4.6 1.8 11.8 7.6 16.3M147.3 102.4c-.6 2.8-28.2 21.9-27.1 15.5.7-4.4 18.5-8.2 20.2-8.2 7.6-.4 11.9 3.4 12 5 .2 3.3-5.8 15.3-6.9 12.2-1.2-3.8 8.7-18.2 15.6-13.5 3.2 2.2 9.5 9.8 9 13.6-1.3 9.9-11.4 34.6-20.4 32.6-8.2-1.8-33.1-23.5-36.7-24.4-2.2-.5-3.6-5.1-1.5-4.2 1.8.7-1.9 2.9-4.6 3.2-1.3.2-17.5-10.2-14.6-16.8 1.2-2.7 4.8-6.5 7.5-7.8 2.7-1.3 5.4-4.7 5.4-7.1.1-6.4 17.6-13.7 21.8-19.8M180.1 126.4c0-2.3-8.5-.7-8.5-3M177.3 132.4c0-1.8 3.7-4.6 4.9-3.2 2.9 3.5 2.9 16-.2 21.6"/>
      <path class="st9" d="M144.8 151.8c0-1.2 3.2-5 4.2-4.4 1.3.7-2.9 5.5-1.4 5.8 12 2.2 16.5-32.2 14.4-32.2M150.5 159.9c5.4 5.5 19 6.1 22.9 11.2 1.6 2.1 1 9 3.6 9.4 4.6.8 15.2 7.5 14.1 11-1.7 5.3.8 15.7 7.1 20.9 3 2.4 9.5 13.6 9.5 13.6s5.5 15.7 7.4 20.9c4.9 13.7 10.3 43.7 20 54.5.9 1 5 1.1 5 2.5M197.6 167.9c0 8.9-.9 27.9 4.4 34.9 5 6.6 28.2 32.8 34 35.9"/>
      <path class="st9" d="M241.3 257.6c-5.5-2.1-37.1-32.5-41.6-48.2-1-3.4-3.3-7.8-3.6-11.4-.8-8.8-7.2-32.2-1.5-40M235.7 128.3c-12.6 19.1-18.6 54.8-4 77.8M225.8 211.1s13.2 7.8 13.2 12.4"/>
      <path class="st9" d="M245.4 126.9c-15.5 18.8-2.5 93.8 3.8 107.7.8 1.8-4.1 5.8-4.2 7.8 0 1.9 2.2 5.2 2.5 7 .4 2.8.6 8.9-.5 11.5-1.6 3.8-7.9 7.8-9.1 11.8-2.2 7.3 2.9 23.6 2.1 31.2-.3 3.1-4.8 8.9-4 12 .6 2.3 6.6 3.9 8.6 5.1 3.5 2.1 10 8.1 13.6 6.2 2.6-1.3 1.7-7.6 2.8-10.4 4.6-11.5 19.2-32.1 22.2-44.3 1.9-7.8 1.2-25.3 0-33.2-.6-3.8-3.5-10.4-2.2-14 4.7-12.8 6.8-39.7 3-53.5M243.6 194.4c13.9 17.5 33.8 12.6 36.8 18.3"/>
      <path class="st9" d="M241.2 199.8c4.3 7.8 16.1 14.8 23.2 17.2 8.9 3 16.4-.3 18.3 3.2M264.6 232.4c1.8 3.3 11.3.4 11.3 3.2M265.1 243.4c-2.5-1.5-10.6-9.1-13-6-3.5 4.4 4 12.7 9.2 17.3 3.4 3-12.7-3.8-12.7-9.3M279.8 275.1c-3-11.1-27.1-14.2-31.8-14.4-8.8-.3 27.2 2.9 27.5 17.9"/>
      <path class="st9" d="M255.6 117.7c9.9 9.4 38.7 36.1 40.7 60.9 1.3 0 17.3 70.8 10.8 94-.7 2.4-1.6.8-3.7 2.2-3 2-.3 11.9-4.2 11.3-5.7-.8-3.1-8.6-13.2-11.2M295.5 283.3c-9.2 3.5-26.4 26.8-30.9 26.4M240.8 319.8c0 3.4-1.4 9.3.6 12 2.4 3.1 10.3 8.2 13.8 6.4 1.9-1 1.9-4.6 1.9-6.8M249.8 326.6c-.8 1.7-1.9 5.7 0 6.8M243.1 334.1c1.8 1.5-6 21.1-5.5 26.9.3 2.8 15.7 16 21.5 22.5.8.9 4.2-1.8 4.2-3"/>
      <path class="st9" d="M255.7 337.7c0 4.1-3.8 17.7-1.6 21.2 2.1 3.4 9.3 15.2 11.5 16.9.9.7.3-12.1-2.1-13-1-.4-3.5 1.4-3.5 2.5M255.3 371.7c.1 2.1 8.8 6.8 10.2 3.8M241.2 343.4c-1 3.2-7.6 6.3-7.9 9.2-.3 2.4 3.5 3.9 4.2 6.2M249 373.1c0 1.5 2.7 10 3.9 11.1.8.7 1.1-3.4 1.8-5.4M223.7 276.8c.2 2-19 2.4-22.7-1.3-14.8-15.3-61.9-85.3-64.7-84.3 0 0 8.7 88.2 10.7 106.8.4 3.8-11.3 14-11.7 10.2-2.7-25.3-16.4-110.3-30.3-149.7 0 0-5-12.7-4-17 .7-2.8 6.8-8.2 9.6-6.6 17.6 9.9 60.8 62.2 85.4 90.6.4.5.6 1.6 1.2 1.4 6.4-1.6 8.4 3.4 10.5 11.7.8 3.4 6.1 4 6.2 5.3.2-.1 9.2 27.5 9.8 32.9zM267.7 307.6l16.7 89.8 7.6 39.1s0 1.5-.2 2c-.5 1-4.3 2.2-4 3.6.3 1.5 2.8 3.5 2.7 4.3-.1 2.1-3.4 2.7-3.4 4.2 0 1.4 3.3 1.9 4.1 2.8.7.8.3 4.4.3 4.4 1.2 0-12.6 83.1-18 111.1-.7 3.8-2.2 11.8-1 15.5.7 2.2 3.7 7 6 7 2.6.1 6.6-5 7-7.5 4-25.3 23.8-132 23.8-132l-11-166.3-3.5-2.3-7.3 5.5-19.8 18.8z"/>
      <path class="st9" d="M126.1 320.8c2.1-3.5 5.2-7.9 8.5-11.8 0-.1.1-.2.1-.2 4.6 1 9.1-5.1 12.3-9.7 0-.1.1 0 .2 0 3.1-.2 9.2 6.3 10.1 9.2.7 2.1-2.1 2.8-1.8 5 .5 4.5 6.3 13 7 17.5 1.4 8.7 2.2 35.6-5.5 34.5-19.1-2.8-36 1.6-40.2 8.5-1.9 3.2-11.7-6.2-12.5-11.8-.4-2.8 5.8-17.9 12.7-20.3 6.2-2.2 8 1.8 12.5 2 6.9.2-7-17.1-3.4-22.9z"/>
      <path class="st9" d="M130.4 329.8c0-1.9 6.4-4.2 7.5-2.7 2.1 3-12.1 7-9.8 9.8 1.8 2.3 8.8-7.9 10.5-5.5 1.8 2.5-10.3 5.7-9 8.5 1 2.3 9-.3 9-2.8M272.1 570.9c0 2-5.7-.2-6.8 1.5-2.3 3.4 1.2 10.7 3.8 13.9 1.8 2.3 6.5 5.3 9.5 5.3 3.6 0 13.5-4.9 12.8-8.1-.7-3.2-4-3.1-4-5.2"/>
      <path class="st9" d="M266 581.2c0 2.4-2.2 6.4-1.9 8.8.2 1.6 3.3 6.9 3.2 8.5-.1 4.8-5.8 6.5-6 9.4-.2 3.1 2.9 9.5 2.8 12.6-.1 3.1.2 10.9 1.3 12.3 1.3 1.7 6.4 7.1 10.1 7.4 4.9.4 15-4.8 17.8-8.8 5-7-2.1-21.3-2.8-29.1-.4-4.4-3.7-10.7.1-17.1"/>
      <path class="st9" d="M270.5 610.7c-2.7 8.2 2.8 17.6 8.2 20.2 2.3 1.1 8.6-.5 10.1-2.6 2.5-3.5-4.7-7.6-1.8-15.8M284.1 600.9c0-4-17.9-8.6-14.5-6.5 3.1 2 17.7 6.2 15 1.5-1.6-2.8-10 3.5-12 5M195.3 151.6s5.5-22.3 2.4-25.2l-6.4 2.4c1.9 2 4 22.8 4 22.8zM163.7 56.7c-1.7-.1-6.6 5.8-5.4 6.2 1.6.5 2.3-4-.5-4.8-.7-.2-2 .6-2.6 1-8.2 4.9-28.7 23.8-28.7 23.8L150 105s9.4-8.2 11.1-12.5c1-2.6 0-7.3 1.8-9.4 1.7-2 9.7-1.3 9.5 1.7M142.6 84.7l3.1 8.1M266.2 603.5c0 3.2-1 9.2.6 12.5 1.7 3.5-2.9 10.8-1.7 14.9"/>
    </g>
    <path class="st1" d="M176.1 345.4c-23.2-6.1-29 44.8-28 35.3 4-36.9-46.5 2.4-34.7 1.4 4.7-.4-17.4-32.2-37.2-11.5"/>

    <g id="speech">
      <path fill="#020202" d="M149.5 98.4c.7-1.4 1.3-2.7.8-2.7-5.9.5-16 1.8-19.2-4.1-.1-.2-.4 0-.2-.1 1.9-1.5 6.7-26.5 6.5-34-.2-5.1-1.9-11-6.3-13.6C110.2 31.4 59.6 22.7 35.3 25c-6 .6-18.8 4.2-22.3 9-6.8 9.3-10.7 34.1-7.1 45 2.6 7.9 10.4 25 20.1 27 19.7 4.1 61.3 5.9 78.2 6.7 2.1.1 9.3 0 14-3.2.3-.2-.4-.2 0 0 11.7 4.5 27.4-3.5 31.3-11.1z"/>
      <path fill="#fff" d="M144.3 99.5c-6 1.7-22.8.6-18.7-8.1.4-.9 0 .1.4-.9 3.8-9.6 8.9-24.6 8-32-.5-4.8-1.8-10.4-6.2-12.9-20.2-11.8-69.6-19.9-93.3-17.8-5.9.5-18.4 4-21.8 8.5-6.5 8.8-10.3 32.3-6.8 42.5 2.5 7.5 10.2 23.7 19.6 25.5 19.2 3.8 59.8 5.5 76.2 6.3 5.9.3 10.8-1.5 13.2-4.2 1.8-2 .6-1.7 2.8-1.1 4.8 1.1 19.6 2.7 26.6-5.8z" />
    </g>
    <text transform="rotate(5.878 -482.694 340.928)">
      <tspan x="0" y="0" class="sta2 sta3">Скетч </tspan><tspan x="0" y="21" class="sta2 sta3">рисовал </tspan><tspan x="0" y="42" class="sta2 sta3">Мичил!</tspan>
    </text>
  </g>
</svg>
